<svg width="100%" height="100%" viewBox="0 0 2795 618" version="1.1" xmlns="http://www.w3.org/2000/svg" style="fill-rule:evenodd;clip-rule:evenodd;stroke-linejoin:round;stroke-miterlimit:2;">
    <g transform="matrix(1.5,0,0,1.5,0,0)">
        <g transform="matrix(0.963452,0,0,1,0,0)">
            <rect id="Mesa-de-trabajo1" x="0" y="0" width="1934" height="412" style="fill:none;"/>
            <g id="Mesa-de-trabajo11">
                <g transform="matrix(1.0318,0,0,0.988418,-70.5838,-6.35599)">
                    <rect x="453.222" y="228.295" width="1480.78" height="10.117" style="fill:white;"/>
                </g>
                <g transform="matrix(1.03793,0,0,1,-165.489,51.3249)">
                    <path d="M626.664,73.022C626.664,83.462 624.711,92.413 620.806,99.876C616.901,107.338 611.333,113.042 604.102,116.986C596.871,120.93 588.345,122.902 578.524,122.902C571.409,122.902 565.223,121.993 559.964,120.176C554.705,118.358 550.529,116.386 547.436,114.26C544.343,112.133 542.448,110.528 541.752,109.446L554.744,79.402C555.672,80.716 556.987,82.147 558.688,83.694C560.389,85.24 562.477,86.574 564.952,87.696C567.427,88.817 570.211,89.378 573.304,89.378C576.861,89.378 580.032,88.643 582.816,87.174C585.6,85.704 587.823,83.268 589.486,79.866C591.149,76.463 591.98,71.939 591.98,66.294L591.98,-40.002L626.664,-40.002L626.664,73.022Z" style="fill:white;fill-rule:nonzero;"/>
                </g>
                <g transform="matrix(1.03793,0,0,1,-165.489,51.3249)">
                    <path d="M684.084,68.962C684.084,76.54 685.515,82.592 688.376,87.116C691.237,91.64 696.032,93.902 702.76,93.902C709.643,93.902 714.495,91.64 717.318,87.116C720.141,82.592 721.552,76.54 721.552,68.962L721.552,24.882L756.352,24.882L756.352,72.674C756.352,82.882 754.245,91.756 750.03,99.296C745.815,106.836 739.725,112.655 731.76,116.754C723.795,120.852 714.128,122.902 702.76,122.902C691.469,122.902 681.841,120.852 673.876,116.754C665.911,112.655 659.84,106.836 655.664,99.296C651.488,91.756 649.4,82.882 649.4,72.674L649.4,24.882L684.084,24.882L684.084,68.962Z" style="fill:white;fill-rule:nonzero;"/>
                </g>
                <g transform="matrix(1.03793,0,0,1,-165.489,51.3249)">
                    <path d="M851.704,120.118L851.704,104.69C851.008,106.236 849.249,108.479 846.426,111.418C843.603,114.356 839.872,117.005 835.232,119.364C830.592,121.722 825.179,122.902 818.992,122.902C809.712,122.902 801.592,120.64 794.632,116.116C787.672,111.592 782.259,105.521 778.392,97.904C774.525,90.286 772.592,81.838 772.592,72.558C772.592,63.278 774.525,54.829 778.392,47.212C782.259,39.594 787.672,33.504 794.632,28.942C801.592,24.379 809.712,22.098 818.992,22.098C824.947,22.098 830.167,23.045 834.652,24.94C839.137,26.834 842.772,29.077 845.556,31.668C848.34,34.258 850.273,36.636 851.356,38.802L851.356,24.882L886.388,24.882L886.388,120.118L851.704,120.118ZM807.16,72.558C807.16,76.888 808.165,80.774 810.176,84.216C812.187,87.657 814.874,90.344 818.238,92.278C821.602,94.211 825.333,95.178 829.432,95.178C833.685,95.178 837.436,94.211 840.684,92.278C843.932,90.344 846.503,87.657 848.398,84.216C850.293,80.774 851.24,76.888 851.24,72.558C851.24,68.227 850.293,64.341 848.398,60.9C846.503,57.458 843.932,54.752 840.684,52.78C837.436,50.808 833.685,49.822 829.432,49.822C825.333,49.822 821.602,50.808 818.238,52.78C814.874,54.752 812.187,57.458 810.176,60.9C808.165,64.341 807.16,68.227 807.16,72.558Z" style="fill:white;fill-rule:nonzero;"/>
                </g>
                <g transform="matrix(1.03793,0,0,1,-165.489,51.3249)">
                    <path d="M974.316,22.098C980.967,22.098 987.463,23.451 993.804,26.158C1000.14,28.864 1005.37,33.137 1009.46,38.976C1013.56,44.814 1015.61,52.49 1015.61,62.002L1015.61,120.118L980.232,120.118L980.232,67.802C980.232,60.996 978.608,55.873 975.36,52.432C972.112,48.99 967.859,47.27 962.6,47.27C959.12,47.27 955.853,48.178 952.798,49.996C949.743,51.813 947.269,54.365 945.374,57.652C943.479,60.938 942.532,64.708 942.532,68.962L942.532,120.118L907.268,120.118L907.268,24.882L942.532,24.882L942.532,38.918C943.46,36.366 945.413,33.794 948.39,31.204C951.367,28.613 955.118,26.448 959.642,24.708C964.166,22.968 969.057,22.098 974.316,22.098Z" style="fill:white;fill-rule:nonzero;"/>
                </g>
                <g transform="matrix(1.03793,0,0,1,-165.489,51.3249)">
                    <path d="M1168.85,73.022C1168.85,83.462 1166.89,92.413 1162.99,99.876C1159.09,107.338 1153.52,113.042 1146.29,116.986C1139.06,120.93 1130.53,122.902 1120.71,122.902C1113.59,122.902 1107.41,121.993 1102.15,120.176C1096.89,118.358 1092.71,116.386 1089.62,114.26C1086.53,112.133 1084.63,110.528 1083.94,109.446L1096.93,79.402C1097.86,80.716 1099.17,82.147 1100.87,83.694C1102.57,85.24 1104.66,86.574 1107.14,87.696C1109.61,88.817 1112.39,89.378 1115.49,89.378C1119.05,89.378 1122.22,88.643 1125,87.174C1127.78,85.704 1130.01,83.268 1131.67,79.866C1133.33,76.463 1134.16,71.939 1134.16,66.294L1134.16,-40.002L1168.85,-40.002L1168.85,73.022Z" style="fill:white;fill-rule:nonzero;"/>
                </g>
                <g transform="matrix(1.03793,0,0,1,-165.489,51.3249)">
                    <path d="M1266.75,120.118L1266.75,104.69C1266.06,106.236 1264.3,108.479 1261.47,111.418C1258.65,114.356 1254.92,117.005 1250.28,119.364C1245.64,121.722 1240.23,122.902 1234.04,122.902C1224.76,122.902 1216.64,120.64 1209.68,116.116C1202.72,111.592 1197.31,105.521 1193.44,97.904C1189.57,90.286 1187.64,81.838 1187.64,72.558C1187.64,63.278 1189.57,54.829 1193.44,47.212C1197.31,39.594 1202.72,33.504 1209.68,28.942C1216.64,24.379 1224.76,22.098 1234.04,22.098C1240,22.098 1245.21,23.045 1249.7,24.94C1254.18,26.834 1257.82,29.077 1260.6,31.668C1263.39,34.258 1265.32,36.636 1266.4,38.802L1266.4,24.882L1301.44,24.882L1301.44,120.118L1266.75,120.118ZM1222.21,72.558C1222.21,76.888 1223.21,80.774 1225.22,84.216C1227.24,87.657 1229.92,90.344 1233.29,92.278C1236.65,94.211 1240.38,95.178 1244.48,95.178C1248.73,95.178 1252.48,94.211 1255.73,92.278C1258.98,90.344 1261.55,87.657 1263.45,84.216C1265.34,80.774 1266.29,76.888 1266.29,72.558C1266.29,68.227 1265.34,64.341 1263.45,60.9C1261.55,57.458 1258.98,54.752 1255.73,52.78C1252.48,50.808 1248.73,49.822 1244.48,49.822C1240.38,49.822 1236.65,50.808 1233.29,52.78C1229.92,54.752 1227.24,57.458 1225.22,60.9C1223.21,64.341 1222.21,68.227 1222.21,72.558Z" style="fill:white;fill-rule:nonzero;"/>
                </g>
                <g transform="matrix(1.03793,0,0,1,-165.489,51.3249)">
                    <path d="M1356.07,120.118L1320.81,120.118L1320.81,24.882L1356.07,24.882L1356.07,39.614L1355.49,39.614C1356.11,37.835 1357.62,35.573 1360.02,32.828C1362.41,30.082 1365.78,27.608 1370.11,25.404C1374.44,23.2 1379.74,22.098 1386,22.098C1390.41,22.098 1394.47,22.774 1398.18,24.128C1401.89,25.481 1404.6,26.776 1406.3,28.014L1392.61,56.666C1391.53,55.351 1389.62,53.978 1386.87,52.548C1384.12,51.117 1380.7,50.402 1376.6,50.402C1371.89,50.402 1368,51.6 1364.95,53.998C1361.89,56.395 1359.65,59.295 1358.22,62.698C1356.79,66.1 1356.07,69.31 1356.07,72.326L1356.07,120.118Z" style="fill:white;fill-rule:nonzero;"/>
                </g>
                <g transform="matrix(1.03793,0,0,1,-165.489,51.3249)">
                    <path d="M1487.15,120.118L1487.15,104.69C1486.46,106.236 1484.7,108.479 1481.87,111.418C1479.05,114.356 1475.32,117.005 1470.68,119.364C1466.04,121.722 1460.63,122.902 1454.44,122.902C1445.16,122.902 1437.04,120.64 1430.08,116.116C1423.12,111.592 1417.71,105.521 1413.84,97.904C1409.97,90.286 1408.04,81.838 1408.04,72.558C1408.04,63.278 1409.97,54.829 1413.84,47.212C1417.71,39.594 1423.12,33.504 1430.08,28.942C1437.04,24.379 1445.16,22.098 1454.44,22.098C1460.39,22.098 1465.62,23.045 1470.1,24.94C1474.59,26.834 1478.22,29.077 1481,31.668C1483.79,34.258 1485.72,36.636 1486.8,38.802L1486.8,24.882L1521.84,24.882L1521.84,120.118L1487.15,120.118ZM1442.61,72.558C1442.61,76.888 1443.61,80.774 1445.62,84.216C1447.63,87.657 1450.32,90.344 1453.69,92.278C1457.05,94.211 1460.78,95.178 1464.88,95.178C1469.13,95.178 1472.88,94.211 1476.13,92.278C1479.38,90.344 1481.95,87.657 1483.85,84.216C1485.74,80.774 1486.69,76.888 1486.69,72.558C1486.69,68.227 1485.74,64.341 1483.85,60.9C1481.95,57.458 1479.38,54.752 1476.13,52.78C1472.88,50.808 1469.13,49.822 1464.88,49.822C1460.78,49.822 1457.05,50.808 1453.69,52.78C1450.32,54.752 1447.63,57.458 1445.62,60.9C1443.61,64.341 1442.61,68.227 1442.61,72.558Z" style="fill:white;fill-rule:nonzero;"/>
                </g>
                <g transform="matrix(1.03793,0,0,1,-165.489,51.3249)">
                    <path d="M1675.19,22.098C1682.38,22.098 1688.72,23.586 1694.21,26.564C1699.7,29.541 1704.01,34.123 1707.15,40.31C1710.28,46.496 1711.84,54.462 1711.84,64.206L1711.84,120.118L1677.16,120.118L1677.16,69.542C1677.16,62.891 1676.15,57.516 1674.14,53.418C1672.13,49.319 1668.15,47.27 1662.2,47.27C1658.64,47.27 1655.51,48.198 1652.8,50.054C1650.09,51.91 1648.01,54.481 1646.54,57.768C1645.07,61.054 1644.33,64.979 1644.33,69.542L1644.33,120.118L1611.97,120.118L1611.97,69.542C1611.97,62.891 1610.87,57.516 1608.66,53.418C1606.46,49.319 1602.57,47.27 1597,47.27C1593.45,47.27 1590.32,48.178 1587.61,49.996C1584.9,51.813 1582.83,54.365 1581.4,57.652C1579.97,60.938 1579.26,64.902 1579.26,69.542L1579.26,120.118L1544.22,120.118L1544.22,24.882L1579.26,24.882L1579.26,38.454C1580.18,36.056 1582.21,33.601 1585.35,31.088C1588.48,28.574 1592.36,26.448 1597,24.708C1601.64,22.968 1606.56,22.098 1611.74,22.098C1617.38,22.098 1622.1,22.929 1625.89,24.592C1629.68,26.254 1632.79,28.478 1635.23,31.262C1637.66,34.046 1639.62,37.062 1641.08,40.31C1642.17,37.526 1644.31,34.722 1647.52,31.9C1650.73,29.077 1654.75,26.738 1659.59,24.882C1664.42,23.026 1669.62,22.098 1675.19,22.098Z" style="fill:white;fill-rule:nonzero;"/>
                </g>
                <g transform="matrix(1.03793,0,0,1,-165.489,51.3249)">
                    <path d="M1733.54,120.118L1733.54,24.882L1768.8,24.882L1768.8,120.118L1733.54,120.118ZM1751.63,0.278C1746.06,0.278 1741.35,-1.675 1737.48,-5.58C1733.61,-9.486 1731.68,-14.145 1731.68,-19.558C1731.68,-24.972 1733.63,-29.67 1737.54,-33.652C1741.44,-37.635 1746.14,-39.626 1751.63,-39.626C1755.27,-39.626 1758.59,-38.718 1761.61,-36.9C1764.62,-35.083 1767.06,-32.666 1768.92,-29.65C1769.14,-29.292 1769.34,-28.93 1769.54,-28.562C1770.98,-25.831 1771.7,-22.83 1771.7,-19.558C1771.7,-14.145 1769.73,-9.486 1765.78,-5.58C1761.84,-1.675 1757.12,0.278 1751.63,0.278Z" style="fill:white;fill-rule:nonzero;"/>
                </g>
                <g transform="matrix(1.03793,0,0,1,-165.489,51.3249)">
                    <rect x="1793.04" y="-39.498" width="35.38" height="159.616" style="fill:white;fill-rule:nonzero;"/>
                </g>
                <g transform="matrix(1.03793,0,0,1,-165.489,51.3249)">
                    <rect x="1851.04" y="-39.498" width="35.38" height="159.616" style="fill:white;fill-rule:nonzero;"/>
                </g>
                <g transform="matrix(1.03793,0,0,1,-165.489,51.3249)">
                    <path d="M1957.65,122.902C1947.21,122.902 1937.95,120.756 1929.87,116.464C1921.79,112.172 1915.44,106.256 1910.84,98.716C1906.24,91.176 1903.94,82.534 1903.94,72.79C1903.94,63.046 1906.24,54.365 1910.84,46.748C1915.44,39.13 1921.79,33.118 1929.87,28.71C1937.95,24.302 1947.21,22.098 1957.65,22.098C1968.09,22.098 1977.29,24.302 1985.26,28.71C1993.22,33.118 1999.45,39.13 2003.93,46.748C2008.42,54.365 2010.66,63.046 2010.66,72.79C2010.66,82.534 2008.42,91.176 2003.93,98.716C1999.45,106.256 1993.22,112.172 1985.26,116.464C1977.29,120.756 1968.09,122.902 1957.65,122.902ZM1957.65,93.902C1961.67,93.902 1965.15,93.012 1968.09,91.234C1971.03,89.455 1973.31,86.942 1974.93,83.694C1976.56,80.446 1977.37,76.772 1977.37,72.674C1977.37,68.498 1976.56,64.786 1974.93,61.538C1973.31,58.29 1971.03,55.738 1968.09,53.882C1965.15,52.026 1961.67,51.098 1957.65,51.098C1953.63,51.098 1950.13,52.026 1947.15,53.882C1944.17,55.738 1941.85,58.29 1940.19,61.538C1938.53,64.786 1937.7,68.498 1937.7,72.674C1937.7,76.772 1938.53,80.446 1940.19,83.694C1941.85,86.942 1944.17,89.455 1947.15,91.234C1950.13,93.012 1953.63,93.902 1957.65,93.902Z" style="fill:white;fill-rule:nonzero;"/>
                </g>
                <g transform="matrix(1.03793,0,0,1,-179.293,262.007)">
                    <path d="M638.309,13.814L638.309,120.118L633.316,120.118L633.316,31.451L633.719,24.766L631.867,31.451L599.653,116.252L594.499,116.252L562.286,31.451L560.514,24.766L560.917,31.451L560.917,120.118L555.843,120.118L555.843,13.814L560.997,13.814L596.432,107.877L597.076,110.695L597.721,107.877L633.316,13.814L638.309,13.814Z" style="fill:white;fill-rule:nonzero;"/>
                </g>
                <g transform="matrix(1.03793,0,0,1,-179.293,262.007)">
                    <path d="M662.067,66.885C662.067,76.335 664.067,84.831 668.066,92.374C672.066,99.917 677.543,105.89 684.495,110.293C691.448,114.695 699.38,116.896 708.293,116.896C717.259,116.896 725.205,114.695 732.131,110.293C739.057,105.89 744.493,99.917 748.439,92.374C752.385,84.831 754.358,76.335 754.358,66.885C754.358,57.436 752.385,48.953 748.439,41.437C744.493,33.92 739.057,27.974 732.131,23.599C725.205,19.223 717.259,17.035 708.293,17.035C699.38,17.035 691.448,19.223 684.495,23.599C677.543,27.974 672.066,33.92 668.066,41.437C664.067,48.953 662.067,57.436 662.067,66.885ZM656.913,66.885C656.913,59.154 658.201,51.946 660.778,45.262C663.355,38.578 666.966,32.739 671.61,27.746C676.254,22.753 681.703,18.861 687.958,16.069C694.213,13.277 700.991,11.881 708.293,11.881C715.648,11.881 722.426,13.277 728.627,16.069C734.829,18.861 740.251,22.753 744.895,27.746C749.539,32.739 753.136,38.578 755.687,45.262C758.237,51.946 759.512,59.154 759.512,66.885C759.512,74.67 758.237,81.905 755.687,88.589C753.136,95.273 749.539,101.125 744.895,106.145C740.251,111.165 734.829,115.071 728.627,117.863C722.426,120.655 715.648,122.051 708.293,122.051C700.991,122.051 694.213,120.655 687.958,117.863C681.703,115.071 676.254,111.165 671.61,106.145C666.966,101.125 663.355,95.273 660.778,88.589C658.201,81.905 656.913,74.67 656.913,66.885Z" style="fill:white;fill-rule:nonzero;"/>
                </g>
                <g transform="matrix(1.03793,0,0,1,-179.293,262.007)">
                    <path d="M776.827,13.814L800.584,13.814C806.168,13.814 811.469,14.539 816.489,15.988C821.509,17.438 825.59,19.988 828.73,23.639C831.871,27.29 833.442,32.471 833.442,39.182C833.442,43.906 832.502,48.202 830.623,52.067C828.744,55.933 826.516,59.047 823.939,61.409C821.362,63.771 819.026,65.033 816.932,65.194C818.489,65.248 820.489,65.798 822.932,66.845C825.375,67.892 827.831,69.449 830.301,71.516C832.771,73.583 834.851,76.187 836.542,79.328C838.233,82.468 839.079,86.186 839.079,90.482C839.079,96.173 838.019,101.26 835.898,105.743C833.777,110.226 830.448,113.742 825.912,116.292C821.375,118.843 815.429,120.118 808.074,120.118L776.827,120.118L776.827,13.814ZM781.739,115.125L810.329,115.125C816.825,115.125 821.778,113.917 825.187,111.501C828.596,109.085 830.932,106.024 832.193,102.32C833.455,98.615 834.086,94.884 834.086,91.126C834.086,84.791 831.938,79.408 827.643,74.979C823.348,70.55 817.04,68.335 808.718,68.335L781.739,68.335L781.739,115.125ZM781.739,63.422L806.382,63.422C811.483,63.422 815.644,62.188 818.865,59.718C822.086,57.248 824.476,54.188 826.033,50.537C827.59,46.886 828.368,43.316 828.368,39.826C828.368,32.149 826.073,26.726 821.482,23.558C816.892,20.391 810.785,18.807 803.161,18.807L781.739,18.807L781.739,63.422Z" style="fill:white;fill-rule:nonzero;"/>
                </g>
                <g transform="matrix(1.03793,0,0,1,-179.293,262.007)">
                    <rect x="861.145" y="13.814" width="5.154" height="106.304" style="fill:white;fill-rule:nonzero;"/>
                </g>
                <g transform="matrix(1.03793,0,0,1,-179.293,262.007)">
                    <path d="M891.667,13.814L896.741,13.814L896.741,114.964L941.276,114.964L941.276,120.118L891.667,120.118L891.667,13.814Z" style="fill:white;fill-rule:nonzero;"/>
                </g>
                <g transform="matrix(1.03793,0,0,1,-179.293,262.007)">
                    <path d="M961.892,13.814L1020.52,13.814L1020.52,18.968L966.805,18.968L966.805,64.228L1018.99,64.228L1018.99,69.382L966.805,69.382L966.805,114.964L1020.52,114.964L1020.52,120.118L961.892,120.118L961.892,13.814Z" style="fill:white;fill-rule:nonzero;"/>
                </g>
                <g transform="matrix(1.03793,0,0,1,-179.293,262.007)">
                    <path d="M1091.79,93.3C1089.7,93.3 1087.91,92.562 1086.44,91.086C1084.96,89.609 1084.22,87.824 1084.22,85.73C1084.22,83.529 1084.96,81.69 1086.44,80.214C1087.91,78.737 1089.7,77.999 1091.79,77.999C1093.94,77.999 1095.75,78.737 1097.23,80.214C1098.7,81.69 1099.44,83.529 1099.44,85.73C1099.44,87.824 1098.7,89.609 1097.23,91.086C1095.75,92.562 1093.94,93.3 1091.79,93.3Z" style="fill:white;fill-rule:nonzero;"/>
                </g>
                <g transform="matrix(1.03793,0,0,1,-179.293,262.007)">
                    <path d="M1240.62,120.118L1233.13,120.118L1206.71,16.23L1208,16.23L1181.59,120.118L1174.1,120.118L1153.4,13.814L1158.96,13.814L1177.96,113.836L1177.88,113.836L1203.49,13.814L1211.22,13.814L1236.91,113.836L1236.75,113.836L1255.84,13.814L1261.4,13.814L1240.62,120.118Z" style="fill:white;fill-rule:nonzero;"/>
                </g>
                <g transform="matrix(1.03793,0,0,1,-179.293,262.007)">
                    <path d="M1280.8,13.814L1339.43,13.814L1339.43,18.968L1285.72,18.968L1285.72,64.228L1337.9,64.228L1337.9,69.382L1285.72,69.382L1285.72,114.964L1339.43,114.964L1339.43,120.118L1280.8,120.118L1280.8,13.814Z" style="fill:white;fill-rule:nonzero;"/>
                </g>
                <g transform="matrix(1.03793,0,0,1,-179.293,262.007)">
                    <path d="M1363.51,13.814L1387.27,13.814C1392.85,13.814 1398.15,14.539 1403.17,15.988C1408.19,17.438 1412.28,19.988 1415.42,23.639C1418.56,27.29 1420.13,32.471 1420.13,39.182C1420.13,43.906 1419.19,48.202 1417.31,52.067C1415.43,55.933 1413.2,59.047 1410.62,61.409C1408.05,63.771 1405.71,65.033 1403.62,65.194C1405.17,65.248 1407.17,65.798 1409.62,66.845C1412.06,67.892 1414.52,69.449 1416.99,71.516C1419.46,73.583 1421.54,76.187 1423.23,79.328C1424.92,82.468 1425.76,86.186 1425.76,90.482C1425.76,96.173 1424.7,101.26 1422.58,105.743C1420.46,110.226 1417.13,113.742 1412.6,116.292C1408.06,118.843 1402.11,120.118 1394.76,120.118L1363.51,120.118L1363.51,13.814ZM1368.42,115.125L1397.01,115.125C1403.51,115.125 1408.46,113.917 1411.87,111.501C1415.28,109.085 1417.62,106.024 1418.88,102.32C1420.14,98.615 1420.77,94.884 1420.77,91.126C1420.77,84.791 1418.62,79.408 1414.33,74.979C1410.03,70.55 1403.73,68.335 1395.4,68.335L1368.42,68.335L1368.42,115.125ZM1368.42,63.422L1393.07,63.422C1398.17,63.422 1402.33,62.188 1405.55,59.718C1408.77,57.248 1411.16,54.188 1412.72,50.537C1414.28,46.886 1415.05,43.316 1415.05,39.826C1415.05,32.149 1412.76,26.726 1408.17,23.558C1403.58,20.391 1397.47,18.807 1389.85,18.807L1368.42,18.807L1368.42,63.422Z" style="fill:white;fill-rule:nonzero;"/>
                </g>
                <g transform="matrix(1.03793,0,0,1,-179.293,262.007)">
                    <path d="M1492.93,93.3C1490.84,93.3 1489.05,92.562 1487.57,91.086C1486.1,89.609 1485.36,87.824 1485.36,85.73C1485.36,83.529 1486.1,81.69 1487.57,80.214C1489.05,78.737 1490.84,77.999 1492.93,77.999C1495.08,77.999 1496.89,78.737 1498.37,80.214C1499.84,81.69 1500.58,83.529 1500.58,85.73C1500.58,87.824 1499.84,89.609 1498.37,91.086C1496.89,92.562 1495.08,93.3 1492.93,93.3Z" style="fill:white;fill-rule:nonzero;"/>
                </g>
                <g transform="matrix(1.03793,0,0,1,-179.293,262.007)">
                    <path d="M1560.82,13.814L1580.07,13.814C1591.39,13.814 1600.66,16.082 1607.85,20.619C1615.04,25.156 1620.35,31.424 1623.76,39.423C1627.16,47.423 1628.87,56.577 1628.87,66.885C1628.87,77.247 1627.18,86.428 1623.8,94.428C1620.41,102.427 1615.12,108.709 1607.93,113.272C1600.74,117.836 1591.45,120.118 1580.07,120.118L1560.82,120.118L1560.82,13.814ZM1565.73,18.968L1565.73,114.964L1579.74,114.964C1590.05,114.964 1598.43,112.924 1604.87,108.843C1611.31,104.763 1616.05,99.125 1619.09,91.931C1622.12,84.737 1623.66,76.442 1623.72,67.046C1623.77,57.651 1622.29,49.342 1619.29,42.121C1616.28,34.9 1611.53,29.236 1605.03,25.129C1598.54,21.022 1590.11,18.968 1579.74,18.968L1565.73,18.968Z" style="fill:white;fill-rule:nonzero;"/>
                </g>
                <g transform="matrix(1.03793,0,0,1,-179.293,262.007)">
                    <rect x="1650.77" y="13.814" width="5.154" height="106.304" style="fill:white;fill-rule:nonzero;"/>
                </g>
                <g transform="matrix(1.03793,0,0,1,-179.293,262.007)">
                    <path d="M1724.38,63.825L1777.61,63.825L1777.61,68.818C1777.61,76.066 1776.3,82.898 1773.67,89.314C1771.04,95.73 1767.4,101.394 1762.76,106.306C1758.11,111.219 1752.69,115.071 1746.49,117.863C1740.29,120.655 1733.59,122.051 1726.39,122.051C1719.09,122.051 1712.32,120.588 1706.06,117.662C1699.81,114.736 1694.36,110.722 1689.71,105.622C1685.07,100.521 1681.46,94.656 1678.88,88.025C1676.3,81.395 1675.02,74.348 1675.02,66.885C1675.02,59.476 1676.3,52.456 1678.88,45.826C1681.46,39.195 1685.07,33.33 1689.71,28.229C1694.36,23.129 1699.81,19.129 1706.06,16.23C1712.32,13.331 1719.09,11.881 1726.39,11.881C1730.42,11.881 1734.3,12.337 1738.03,13.25C1741.76,14.163 1745.31,15.492 1748.66,17.236C1752.02,18.981 1755.13,21.062 1758.01,23.478C1760.88,25.894 1763.44,28.605 1765.69,31.612L1761.99,34.833C1757.91,29.41 1752.81,25.088 1746.69,21.867C1740.57,18.646 1733.8,17.035 1726.39,17.035C1719.74,17.035 1713.59,18.351 1707.95,20.981C1702.32,23.612 1697.42,27.223 1693.26,31.813C1689.1,36.403 1685.87,41.705 1683.59,47.718C1681.31,53.732 1680.17,60.12 1680.17,66.885C1680.17,73.65 1681.31,80.039 1683.59,86.052C1685.87,92.065 1689.1,97.394 1693.26,102.038C1697.42,106.682 1702.32,110.32 1707.95,112.95C1713.59,115.581 1719.74,116.896 1726.39,116.896C1732.94,116.896 1738.97,115.635 1744.48,113.111C1749.98,110.588 1754.78,107.112 1758.89,102.682C1763,98.253 1766.23,93.139 1768.6,87.341C1770.96,81.542 1772.25,75.368 1772.46,68.818L1724.38,68.818L1724.38,63.825Z" style="fill:white;fill-rule:nonzero;"/>
                </g>
                <g transform="matrix(1.03793,0,0,1,-179.293,262.007)">
                    <rect x="1797.02" y="13.814" width="5.154" height="106.304" style="fill:white;fill-rule:nonzero;"/>
                </g>
                <g transform="matrix(1.03793,0,0,1,-179.293,262.007)">
                    <path d="M1850.66,18.968L1819.09,18.968L1819.09,13.814L1887.38,13.814L1887.38,18.968L1855.81,18.968L1855.81,120.118L1850.66,120.118L1850.66,18.968Z" style="fill:white;fill-rule:nonzero;"/>
                </g>
                <g transform="matrix(1.03793,0,0,1,-179.293,262.007)">
                    <path d="M1921.69,13.814L1927.89,13.814L1964.93,120.118L1959.54,120.118L1949.15,90.965L1900.43,90.965L1889.88,120.118L1884.4,120.118L1921.69,13.814ZM1901.8,85.811L1947.86,85.811L1924.91,20.498L1924.67,20.498L1901.8,85.811Z" style="fill:white;fill-rule:nonzero;"/>
                </g>
                <g transform="matrix(1.03793,0,0,1,-179.293,262.007)">
                    <path d="M1978.3,13.814L1983.38,13.814L1983.38,114.964L2027.91,114.964L2027.91,120.118L1978.3,120.118L1978.3,13.814Z" style="fill:white;fill-rule:nonzero;"/>
                </g>
                <g transform="matrix(1.10109,0,0,1.07845,-14.3651,-20.2451)">
                    <path d="M268.626,244.729C268.626,237.372 262.554,231.399 255.074,231.399L193.321,231.399C185.841,231.399 179.769,237.372 179.769,244.729C179.769,252.087 185.841,258.06 193.321,258.06L255.074,258.06C262.554,258.06 268.626,252.087 268.626,244.729Z" style="fill:url(#_Linear1);"/>
                </g>
                <g transform="matrix(1.03793,0,0,1,0,0)">
                    <path d="M165.195,188.023C165.69,188.456 166.161,188.929 166.604,189.44C171.802,195.435 171.154,204.522 165.159,209.719L115.659,252.632C109.663,257.829 100.576,257.182 95.379,251.186C90.181,245.191 90.829,236.104 96.825,230.906L133.726,198.916L95.743,166.568C89.703,161.423 88.975,152.342 94.12,146.302C99.264,140.261 108.345,139.534 114.386,144.678L164.261,187.155C164.588,187.433 164.899,187.723 165.195,188.023Z" style="fill:url(#_Linear2);"/>
                </g>
                <g transform="matrix(1.03793,0,0,1,0,0)">
                    <path d="M348.296,127.293L348.296,267.918C348.296,290.376 331.152,303.62 315.578,313.739C290.353,330.13 231.302,362.238 204.464,376.965C188.239,385.868 164.766,384.518 148.981,374.854C123.032,358.967 57.574,320.64 30.143,303.395C13.893,293.179 12.034,267.927 12.034,248.733L12.034,130.435C12.034,104.117 25.542,93.061 41.203,83.207C70.692,64.65 131.699,31.734 158.499,16.542C173.346,8.126 193.774,11.246 209.545,20.492C236.702,36.414 308.187,74.975 331.312,92.775C341.474,100.597 348.296,114.47 348.296,127.293ZM322.499,138.033C322.499,127.176 316.723,115.432 308.12,108.81C288.543,93.741 228.027,61.098 205.037,47.619C191.686,39.791 174.392,37.15 161.823,44.275C139.135,57.136 87.489,85.001 62.525,100.71C49.267,109.053 37.832,118.412 37.832,140.692L37.832,240.838C37.832,257.088 39.406,278.465 53.162,287.113C76.385,301.712 131.798,334.159 153.766,347.608C167.129,355.789 187,356.932 200.736,349.395C223.456,336.927 273.446,309.746 294.8,295.871C307.985,287.303 322.499,276.092 322.499,257.08L322.499,138.033Z" style="fill:url(#_Linear3);"/>
                </g>
            </g>
        </g>
    </g>
    <defs>
        <linearGradient id="_Linear1" x1="0" y1="0" x2="1" y2="0" gradientUnits="userSpaceOnUse" gradientTransform="matrix(88.8569,0,0,24.1454,179.769,244.257)">
            <stop offset="0" style="stop-color:rgb(86,94,199);stop-opacity:1"/>
            <stop offset="1" style="stop-color:rgb(165,58,121);stop-opacity:1"/>
        </linearGradient>
        <linearGradient id="_Linear2" x1="0" y1="0" x2="1" y2="0" gradientUnits="userSpaceOnUse" gradientTransform="matrix(88.8569,0,0,24.1454,179.769,244.257)">
            <stop offset="0" style="stop-color:rgb(86,94,199);stop-opacity:1"/>
            <stop offset="1" style="stop-color:rgb(165,58,121);stop-opacity:1"/>
        </linearGradient>
        <linearGradient id="_Linear3" x1="0" y1="0" x2="1" y2="0" gradientUnits="userSpaceOnUse" gradientTransform="matrix(336.262,0,0,336.262,12.0342,190.702)">
            <stop offset="0" style="stop-color:rgb(86,94,199);stop-opacity:1"/>
            <stop offset="1" style="stop-color:rgb(165,58,121);stop-opacity:1"/>
        </linearGradient>
    </defs>
</svg>